<?xml version="1.0" encoding="UTF-8"?>
<svg id="Layer_2" xmlns="http://www.w3.org/2000/svg" version="1.1" viewBox="0 0 340.96 193.49">
  <!-- Generator: Adobe Illustrator 30.0.0, SVG Export Plug-In . SVG Version: 2.1.1 Build 123)  -->
  <defs>
    <style>
      .st0 {
        fill: #fff;
        stroke: #231f20;
        stroke-miterlimit: 10;
        stroke-width: .5px;
      }
    </style>
  </defs>
  <path class="st0" d="M108,140.62c7.29-8.97,5.22-4.68,6.08-15.61.21-2.68.95-20.16,1.15-22.83.43-5.71-.25-14.55.29-20.18.08-.79-.81-1.28-1.43-.8-1.06.82-2.09,1.75-2.74,2.75-4.6,7.17-10.25,17.63-13.83,25.14-1.48,3.11-5.58,15.06-5.8,17.94-.14,1.82,1.7,5.07.67,6.88-3.24,5.15-19.04,4.57-22.31.63-2.58-3.11,2.28-6.97,3.37-9.38,5.45-12.02,4.67-38.91,1.76-51.68-.41-1.8-3.85-2.86-5.45-6.39-1.16-2.55-.48-4.52-.42-5.13.6-5.87,22.11-8.29,24.09-1.26.76,2.68-2.67,7.21-3.67,9.32-4.22,8.97-6.62,37.62-3.15,46.77.21.55.19,1.85,1.27,1.31,1.02-.51,10.86-21.03,11.94-23.25,3.98-8.18,10.15-24.94,12.25-32.86.94-3.56,1.18-6.25-.34-9.72s-6.14-5.7-1.85-10.42,12.3-5.8,17.84-3.63c8.16,3.2,6.22,7.52,3.74,12.63-1.13,2.33-5.74,5.85-6.19,8.48-3.47,20.35-2.78,40.95-4.19,62.11-.46,6.89,1.21,13.08,3.56,18.23.8,1.75,3.5,4.25,4.43,6.21,5.82,12.21-29.33,13.33-25-.53.67-2.14,3.03-3.65,3.92-4.73Z"/>
  <path class="st0" d="M208.87,30.15c3.08,0,5.21,3.11,4.07,5.97-.82,2.06-2.08,4.09-2.73,6.29-.77,2.6-1.34,5.37-1.48,8.12-.07,1.31,1.07,2.36,2.38,2.25,7.99-.65,15.62-.78,23.63-1.19,5.16-.26,15.2-4.31,19.48-.94.28.22.9,1.22,1.36,2.41.52,1.33-1.47,3.27-2.3,3.46-2.3.5-11.96-1.61-13.93-1.57-9.96.21-15.02.54-25.08,1.32-1.02.08-3.65.33-5.32.84-.86.26-1.46,1.02-1.55,1.91l-1.04,10.42c-.12,1.21,1.28,1.95,2.21,1.19.68-.56,1.37-1.15,2.28-1.46,2.43-.84,5.7-.45,8.03,1.06,1.6,1.03,2.25,3.02,1.59,4.8s-3.82,3.74-4.9,6.11c-1.55,3.4-1,7.22-1.04,9.01-.06,2.22-.68,8.17,1.78,8.8,1.55.4,11.35,1.34,12.36-.94,2.11-4.79,4.07-14.69,3.88-16.34-.16-1.31-.45-.59-1.98-1.65-3.05-2.1-5.3-5.73-3.15-8.09,3.74-4.1,14.26-5.39,15.75,1.12,1.05,4.61-1.68,4.79-3.38,8.09-2.69,5.22-4.21,16.42-4.95,22.46-1.27,10.3-5.02,38.65-2.99,47.36.65,2.78,4.26,5,2.02,7.79-1.75,1.54-8.44,1.81-10.74.96-.9-.33-3.5-1.17-5.45-2.51-1.7-1.18-2.62-3.49-2.29-4.79.99-3.99,4.11-2.43,5.96-5.37,3.57-5.68,5.55-16.43,5.97-23.15.16-2.65,2.57-14.78.94-15.92-1.34-.93-5.44-.5-5.87-.52-4.18-.2-5.73.67-9.42-2.22-7.07-5.55-1.11-18.36-5.02-26.21-.53-1.07-2.09-1.03-2.61.05-.48,1-.83,2.12-.87,2.73-.47,7.57,0,37.08,2.24,42.75.83,2.09,4.82,4.32,5.82,6.8,5.6,13.84-21.49,12.4-19.27.52.45-2.39,5.67-6.34,5.67-6.72l1.1-64.51c.02-1.18-1.03-2.08-2.19-1.9-8.93,1.39-22.57,6.44-30.77,1.91-5.06-2.8-1.7-7.74,4.12-8.29,2.47-.23,4.49-.44,6.67-.41,6.38.11,12.65.81,19,1.03,1.25.04,2.34-.94,2.38-2.2.19-6.63-5.45-12.29-2.31-17.84.97-1.72,2.82-2.75,4.79-2.75h7.16Z"/>
  <path class="st0" d="M150.89,128.25c.06-.9-1-1.4-1.64-.77-6.14,6.08-20.98,18.42-25.06,5.8-3.86-11.92,14.52-32.18,17.34-44.19,1.28-5.44-2.23-3.65-2.8-7.58-1.4-9.7,14.94-11.88,17.17-4.06,1.07,3.75-2.51,5.28-2.85,8.7-1,10.02,3.67,32.06,10.45,39.78,1.44,1.64,4.35,2.28,4.55,5.26.63,9.31-18.27,12.62-19.21,3.65-.3-2.82,1.93-4.42,2.06-6.6ZM148.47,92.99c-1.5-.38-1.07.3-1.48.82-.77.98-3.28,6.16-3.73,8.52-.11.56.29,1.09.86,1.15l5.06.48c.64.06,1.15-.5,1.04-1.13l-1.75-9.84ZM137.18,125.68c4.42-2.44,10.3-6.61,12.95-10.05,1.38-1.78.17-4.38-2.08-4.5l-6.27-.34c-1.48-.08-2.85.76-3.45,2.12l-4.36,9.82c-.9,2.02,1.29,4.02,3.22,2.95Z"/>
  <path class="st0" d="M262.89,113.16c.06-.9-1-1.4-1.64-.77-6.14,6.08-20.98,18.42-25.06,5.8-3.86-11.92,14.52-32.18,17.34-44.19,1.28-5.44-2.23-3.65-2.8-7.58-1.4-9.7,14.94-11.88,17.17-4.06,1.07,3.75-2.51,5.28-2.85,8.7-1,10.02,3.67,32.06,10.45,39.78,1.44,1.64,4.35,2.28,4.55,5.26.63,9.31-18.27,12.62-19.21,3.65-.3-2.82,1.93-4.42,2.06-6.6ZM260.47,77.9c-1.5-.38-1.07.3-1.48.82-.77.98-3.28,6.16-3.73,8.52-.11.56.29,1.09.86,1.15l5.06.48c.64.06,1.15-.5,1.04-1.13l-1.75-9.84ZM249.19,110.6c4.42-2.44,10.3-6.61,12.95-10.05,1.38-1.78.17-4.38-2.08-4.5l-6.27-.34c-1.48-.08-2.85.76-3.45,2.12l-4.36,9.82c-.9,2.02,1.29,4.02,3.22,2.95Z"/>
  <circle class="st0" cx="80.87" cy="149.42" r="8.07"/>
  <circle class="st0" cx="221.77" cy="43.96" r="5.43"/>
  <circle class="st0" cx="234.62" cy="43.41" r="5.43"/>
  <g>
    <path class="st0" d="M170.41,72.59c.36-.87.55-1.79.55-2.73,0-2.54.86-9.07,10.17-6.08,0,0,5.72,1.94,4.03,7.17-.93,2.87-2.86,3.93-4.41,4.3-1.85.44-3.59,1.23-5.01,2.49-3.07,2.72-8.04,7.37-11.28,11.63-1.42,1.86-.27,4.54,2.05,4.78,7.38.76,21.18,2.76,24.71,7.28,0,0,5.43,4.82,1.99,10.32-.1.17-.24.32-.39.44l-13.88,11.17c-2.63,2.12-5.99,3.23-9.34,2.81-3.73-.47-7.38-2.76-5.87-10.47.02-.1.05-.21.09-.31l4.07-10.59c.72-1.88-.62-3.9-2.63-3.97l-4.25-.14c-.06,0-.12,0-.19-.02-.95-.14-8.67-1.59-4.67-10.59.08-.18.2-.36.34-.5,1.54-1.62,11.18-11.77,12.69-14.43.57-1.01.97-1.86,1.25-2.54Z"/>
    <path class="st0" d="M178.32,102.29c-2.16.09-4.05,1.51-4.84,3.52-1.47,3.77-3.48,10.05-1.65,12.5,2.01,2.67,9.93-5.24,13.87-9.47,1.52-1.64,1.22-3.94-.72-5.04-1.55-.89-3.75-1.63-6.66-1.51Z"/>
  </g>
</svg>